#usda 1.0
(
    customLayerData = {
        string creator = "MuJoCo USD Converter v0.5.0"
    }
    defaultPrim = "seeed_rebot_devarm"
    kilogramsPerUnit = 1
    metersPerUnit = 1
    upAxis = "Z"
)

def Xform "seeed_rebot_devarm" (
    prepend apiSchemas = ["GeomModelAPI"]
    assetInfo = {
        string name = "seeed_rebot_devarm"
    }
    kind = "component"
    prepend payload = @./Payload/Contents.usda@
)
{
    float3[] extentsHint = [(-0.2596303, -0.1, -1.0949644e-11), (0.30171013, 0.1, 0.32075334), (3.4028235e38, 3.4028235e38, 3.4028235e38), (-3.4028235e38, -3.4028235e38, -3.4028235e38), (3.4028235e38, 3.4028235e38, 3.4028235e38), (-3.4028235e38, -3.4028235e38, -3.4028235e38), (-0.2615569, -0.10183333, -0.001833333), (0.3014769, 0.10183333, 0.3221796)]
}

def PhysicsScene "PhysicsScene" (
    prepend payload = @./Payload/Contents.usda@</PhysicsScene>
)
{
}

