#usda 1.0
(
    customLayerData = {
        string creator = "MuJoCo USD Converter v0.5.0"
    }
    defaultPrim = "so101"
    kilogramsPerUnit = 1
    metersPerUnit = 1
    upAxis = "Z"
)

def Xform "so101" (
    prepend apiSchemas = ["GeomModelAPI"]
    assetInfo = {
        string name = "so101"
    }
    kind = "component"
    prepend payload = @./Payload/Contents.usda@
)
{
    float3[] extentsHint = [(-0.0309827, -0.0554625, -0.0024), (0.3986345, 0.081230685, 0.2657218), (3.4028235e38, 3.4028235e38, 3.4028235e38), (-3.4028235e38, -3.4028235e38, -3.4028235e38), (3.4028235e38, 3.4028235e38, 3.4028235e38), (-3.4028235e38, -3.4028235e38, -3.4028235e38), (-0.005, -0.0300778, -0.005), (0.39873856, 0.080269665, 0.26525438)]
}

def PhysicsScene "PhysicsScene" (
    prepend payload = @./Payload/Contents.usda@</PhysicsScene>
)
{
}

