#usda 1.0
(
    customLayerData = {
        string creator = "MuJoCo USD Converter v0.1.0a7"
    }
    defaultPrim = "robotiq_2f85"
    kilogramsPerUnit = 1
    metersPerUnit = 1
    upAxis = "Z"
)

def Xform "robotiq_2f85" (
    prepend apiSchemas = ["GeomModelAPI"]
    assetInfo = {
        string name = "robotiq_2f85"
    }
    kind = "component"
    prepend payload = @./Payload/Contents.usda@
)
{
    float3[] extentsHint = [(-0.07421503, -0.0375, -3.1935052e-9), (0.07421503, 0.0375, 0.16022), (3.4028235e38, 3.4028235e38, 3.4028235e38), (-3.4028235e38, -3.4028235e38, -3.4028235e38), (3.4028235e38, 3.4028235e38, 3.4028235e38), (-3.4028235e38, -3.4028235e38, -3.4028235e38), (-0.07421503, -0.0375, -3.1935052e-9), (0.07421503, 0.0375, 0.1608)]
}

def PhysicsScene "PhysicsScene" (
    prepend payload = @./Payload/Contents.usda@</PhysicsScene>
)
{
}

